# xmcd CD database file
#
# Track frame offsets:
#	150
#	45113
#	120404
#	175530
#
# Disc length: 2626 seconds
#
# Revision: 0
# Processed by: cddbd v1.4PL0 Copyright (c) Steve Scherf et al.
# Submitted via: CDex 1.50beta9
#
DISCID=1e0a4004
DTITLE=Peter Brotzmann - NOTHUNG
DYEAR=2002
DGENRE=Jazz
TTITLE0=NOTHUNG Part 1
TTITLE1=NOTHUNG Part 2
TTITLE2=NOTHUNG Part 3
TTITLE3=NOTHUNG Part 4
EXTD=YEAR: 2002
EXTT0=
EXTT1=
EXTT2=
EXTT3=
PLAYORDER=
